<svg id="e87ddc62-7528-42a5-8b37-f74ed0351019" data-name="Layer 1" xmlns="http://www.w3.org/2000/svg" width="1131" height="812.20611" viewBox="0 0 1131 812.20611"> 
<title>Data Analyst - Male</title> 
<rect x="689.32824" y="51.26718" width="80.80153" height="30.0916" fill="#ffc107" opacity="0.3"/> 
<rect x="823.62595" width="80.80153" height="30.0916" fill="#ffc107" opacity="0.3"/> 
<rect x="829.19847" y="93.06107" width="80.80153" height="30.0916" fill="#ffc107" opacity="0.3"/> 
<rect x="570.63359" y="127.61069" width="80.80153" height="30.0916" fill="#ffc107" opacity="0.3"/> 
<rect x="545" y="251.32061" width="80.80153" height="30.0916" fill="#ffc107" opacity="0.3"/> 
<rect x="667.03817" y="248.53435" width="80.80153" height="30.0916" fill="#ffc107" opacity="0.3"/> 
<polyline points="823.626 14.856 770.13 65.616 829.198 108.107" fill="none" stroke="#3f3d56" stroke-miterlimit="10"/> 
<line x1="689.32824" y1="65.61641" x2="611.03435" y2="127.61069" fill="none" stroke="#3f3d56" stroke-miterlimit="10"/> <polyline points="585.401 251.297 611.034 157.702 707.439 248.534" fill="none" stroke="#3f3d56" stroke-miterlimit="10"/> 
<rect x="144.32824" y="82.26718" width="80.80153" height="30.0916" fill="#ffc107" opacity="0.3"/> <rect x="278.62595" y="31" width="80.80153" height="30.0916" fill="#ffc107" opacity="0.3"/> <rect x="284.19847" y="124.06107" width="80.80153" height="30.0916" fill="#ffc107" opacity="0.3"/> 
<rect x="25.63359" y="158.61069" width="80.80153" height="30.0916" fill="#ffc107" opacity="0.3"/> <rect y="282.32061" width="80.80153" height="30.0916" fill="#ffc107" opacity="0.3"/> <rect x="122.03817" y="279.53435" width="80.80153" height="30.0916" fill="#ffc107" opacity="0.3"/> 
<polyline points="278.626 45.856 225.13 96.616 284.198 139.107" fill="none" stroke="#3f3d56" stroke-miterlimit="10"/> <line x1="144.32824" y1="96.61641" x2="66.03435" y2="158.61069" fill="none" stroke="#3f3d56" stroke-miterlimit="10"/> 
<polyline points="40.401 282.297 66.034 188.702 162.439 279.534" fill="none" stroke="#3f3d56" stroke-miterlimit="10"/> <line x1="365" y1="139.10687" x2="456.63359" y2="139.10687" fill="none" stroke="#3f3d56" stroke-miterlimit="10"/> 
<rect x="415.5" y="123.70611" width="95" height="30" fill="#ffc107"/> <line x1="510.62322" y1="138.70611" x2="570.63359" y2="138.70611" fill="none" stroke="#3f3d56" stroke-miterlimit="10"/> <line x1="415.04486" y1="138.70611" x2="359.42748" y2="45.8564" fill="none" stroke="#3f3d56" stroke-miterlimit="10"/> 
<ellipse cx="691" cy="714.20611" rx="440" ry="98" fill="#f2f2f2"/> <polygon points="894.984 391.611 852.078 606.582 842.79 606.582 841.768 604.994 838.809 600.39 875.964 399.572 881.604 397.21 894.984 391.611" fill="#47465a"/> <polygon points="881.604 397.21 841.768 604.994 838.809 600.39 875.964 399.572 881.604 397.21" opacity="0.1"/> <polygon points="959.564 684.432 948.533 687.988 945.852 688.855 942.313 680.893 881.604 403.96 887.916 402.545 901.177 399.572 959.564 684.432" fill="#47465a"/> <polygon points="948.533 687.988 945.852 688.855 942.313 680.893 881.604 403.96 887.916 402.545 948.533 687.988" opacity="0.1"/> <polygon points="433.636 391.611 423.905 670.277 412.753 672.754 411.962 672.931 408.865 667.181 415.058 394.264 421.016 393.415 433.636 391.611" fill="#47465a"/> <polygon points="421.016 393.415 412.753 672.754 411.962 672.931 408.865 667.181 415.058 394.264 421.016 393.415" opacity="0.1"/> <path d="M502.88475,475.68812l524.45934-61.09027a7.71254,7.71254,0,0,0,2.57751-14.54866l-93.81678-47.18187a108.58678,108.58678,0,0,0-59.80247-11.01708L410.3605,389.3598a8.91843,8.91843,0,0,0-5.45875,15.09495l54.25911,55.66844A52.67339,52.67339,0,0,0,502.88475,475.68812Z" transform="translate(-34.5 -43.89695)" fill="#47465a"/> <rect x="811.60543" y="222.4199" width="89.79267" height="89.79267" opacity="0.1"/> <path d="M773.05563,651.98574s47.50054,67.02855,39.58378,85.501-3.69448,30.08368-19.528,36.41708-20.05578,17.94465-6.3334,17.41687,31.667-4.22227,34.30594-8.97232,8.97233-27.44476,17.94465-30.61147S864.89,736.43115,852.751,721.65321s-42.7254-69.21048-40.36292-74.71681S773.05563,651.98574,773.05563,651.98574Z" transform="translate(-34.5 -43.89695)" fill="#fbbebe"/> <path d="M872.279,519.512s-98.16779,6.33341-123.50142,30.08368,22.16692,112.418,27.44476,113.47352,46.445-3.1667,44.86162-14.77794-29.55589-59.11179-29.55589-59.11179,36.41708-13.1946,56.47287-16.3613,42.22271-17.94465,42.22271-17.94465Z" transform="translate(-34.5 -43.89695)" fill="#9493b6"/> <path d="M827.41736,504.73406s1.58335,58.584,16.3613,60.69514,0-44.86163,0-44.86163l-.52778-17.94465Z" transform="translate(-34.5 -43.89695)" fill="#fbbebe"/> 
<path d="M872.279,351.149s-27.44476-7.91676-32.7226,13.19459-6.86119,93.94552-6.86119,93.94552l-9.50011,58.05622s17.41687-5.27784,21.11135-2.63892l22.16692-27.97254Z" transform="translate(-34.5 -43.89695)" fill="#ffc107"/> 
<path d="M872.279,351.149s-27.44476-7.91676-32.7226,13.19459-6.86119,93.94552-6.86119,93.94552l-9.50011,58.05622s17.41687-5.27784,21.11135-2.63892l22.16692-27.97254Z" transform="translate(-34.5 -43.89695)" opacity="0.1"/> 
<path d="M909.77932,663.22549s18.44475,36.2608,29.52821,35.733,21.63914-7.389,26.917,14.25016-1.05556,15.83352,5.27784,28.50033,7.389,34.83373-4.75,40.11157-23.22249,5.80562-23.75027,0,10.55567-5.80562-2.11114-26.38919-39.58378-58.05622-50.66724-61.75071S909.77932,663.22549,909.77932,663.22549Z" transform="translate(-34.5 -43.89695)" fill="#fbbebe"/> 
<path d="M957.78,497.87287s38.00044,63.33406,13.1946,81.80649-98.69557,53.834-98.69557,53.834,39.58378,26.917,41.69492,35.8893-19.00022,33.25038-26.38919,33.77816-29.02811-24.27805-52.2506-30.61146-37.47265-51.72281-12.139-68.6119,49.0839-44.86162,49.0839-44.86162l-7.3847-40.63369Z" transform="translate(-34.5 -43.89695)" fill="#9493b6"/> 
<path d="M924.83989,286.664c0,22.44449-22.99133,40.99863-45.43582,40.99863a40.63935,40.63935,0,1,1,0-81.27871C901.84856,246.38388,924.83989,264.21946,924.83989,286.664Z" transform="translate(-34.5 -43.89695)" fill="#fbbebe"/> 
<path d="M848.5,250.5 c0,-15 15,-28 40,-28 s42,15 42,35 c0,10 -5,15 -10,18 c-5,5 -15,5 -20,2 c-8,-5 -15,-2 -25,0 c-10,2 -27,5 -27,-27" transform="translate(-34.5 -43.89695)" fill="#3D2314"/> 
<path d="M889.69585,345.34334s36.41708-15.83351,30.41708-17.94465,21.11136,4.75006,25.86141,8.97233,7.389,3.69449,10.55568,12.139-15.83352,87.08433-15.83352,87.08433,10.55568,60.69514,16.3613,66.50076" transform="translate(-34.5 -43.89695)" fill="none" stroke="#ffc107" stroke-width="2"/> 
<path d="M944.58537,337.42659s21.11135-1.05557,25.33362,24.80584,19.00022,107.66789,0,119.80692" transform="translate(-34.5 -43.89695)" fill="#ffc107"/> 
</svg>